<?xml version="1.0" encoding="utf-8"?>
<!-- Generator: Adobe Illustrator 15.0.2, SVG Export Plug-In . SVG Version: 6.00 Build 0)  -->
<!DOCTYPE svg PUBLIC "-//W3C//DTD SVG 1.1//EN" "http://www.w3.org/Graphics/SVG/1.1/DTD/svg11.dtd">
<svg version="1.1" id="Layer_1" xmlns="http://www.w3.org/2000/svg" xmlns:xlink="http://www.w3.org/1999/xlink" x="0px" y="0px"
	 width="382.91px" height="116.711px" viewBox="0 0 382.91 116.711" enable-background="new 0 0 382.91 116.711"
	 xml:space="preserve">
<g>
	<g>
		<defs>
			<rect id="SVGID_1_" x="1" y="3.426" width="379.417" height="110.401"/>
		</defs>
		<clipPath id="SVGID_2_">
			<use xlink:href="#SVGID_1_"  overflow="visible"/>
		</clipPath>
		<path clip-path="url(#SVGID_2_)" fill="#F64D96" d="M187.068,28.065l-8.042,54.167L6.28,93.344L1,16.793L190.773,3.427
			l-1.441,9.963c0,0,22.201-0.55,28.188,16.525C217.52,29.915,202.928,24.398,187.068,28.065"/>
	</g>
	<g>
		<defs>
			<rect id="SVGID_3_" x="1" y="3.426" width="379.417" height="110.401"/>
		</defs>
		<clipPath id="SVGID_4_">
			<use xlink:href="#SVGID_3_"  overflow="visible"/>
		</clipPath>
		<path clip-path="url(#SVGID_4_)" fill="#593C81" d="M192.637,36.577l-7.939,51.755c0,0-20.457,7.483-36.029,0
			c0,0,4.886,18.471,32.977,15.112l-1.222,10.382l189.001-10.074l10.992-78.473L192.637,36.577z"/>
	</g>
	<g>
		<defs>
			<rect id="SVGID_5_" x="1" y="3.426" width="379.417" height="110.401"/>
		</defs>
		<clipPath id="SVGID_6_">
			<use xlink:href="#SVGID_5_"  overflow="visible"/>
		</clipPath>
		<path clip-path="url(#SVGID_6_)" fill="#FFFFFF" d="M32.82,52.021c1.795-0.125,3.473-0.449,4.462-1.034
			c1.634-0.939,2.138-2.571,2.005-4.468c-0.137-1.949-1.167-3.422-2.7-3.984c-1.161-0.383-2.764-0.476-4.457-0.357l-3.025,0.212
			l0.69,9.844L32.82,52.021z M18.001,71.402l-0.485-6.921l3.486-0.245l-1.506-21.482l-3.486,0.244l-0.485-6.921l16.766-1.176
			c3.281-0.229,6.232-0.024,8.271,0.399c4.7,0.907,8.113,4.018,8.555,10.323c0.399,5.691-1.931,9.203-6.262,11.361
			c-2.338,1.195-5.994,1.966-9.019,2.179l-3.538,0.248l0.291,4.152l4.051-0.284l0.485,6.923L18.001,71.402z"/>
	</g>
	<g>
		<defs>
			<rect id="SVGID_7_" x="1" y="3.426" width="379.417" height="110.401"/>
		</defs>
		<clipPath id="SVGID_8_">
			<use xlink:href="#SVGID_7_"  overflow="visible"/>
		</clipPath>
		<path clip-path="url(#SVGID_8_)" fill="#FFFFFF" d="M64.539,48.82c-3.384,0.237-5.416,2.852-5.143,6.749
			c0.288,4.102,2.801,6.141,6.031,5.914c3.435-0.24,5.312-2.845,5.043-6.69C70.205,50.999,67.974,48.579,64.539,48.82
			 M65.881,68.715c-8.664,0.607-14.901-4.569-15.458-12.519c-0.557-7.946,5.457-14.036,13.711-14.614
			c8.614-0.604,14.744,4.531,15.304,12.529C79.988,61.958,74.496,68.112,65.881,68.715"/>
	</g>
</g>
<polygon fill="#FFFFFF" points="82.906,66.854 82.442,60.239 85.673,60.014 84.012,36.326 80.782,36.553 80.29,29.528 
	92.338,28.685 94.49,59.396 97.67,59.172 98.133,65.786 "/>
<g>
	<g>
		<defs>
			<rect id="SVGID_9_" x="1" y="3.426" width="379.417" height="110.401"/>
		</defs>
		<clipPath id="SVGID_10_">
			<use xlink:href="#SVGID_9_"  overflow="visible"/>
		</clipPath>
		<path clip-path="url(#SVGID_10_)" fill="#FFFFFF" d="M105.242,36.384c-2.359,0.166-4.528-1.383-4.723-4.151
			c-0.219-3.128,2.046-4.626,4.097-4.77c2.103-0.147,4.554,1.021,4.773,4.147C109.583,34.38,107.805,36.204,105.242,36.384
			 M99.977,65.657l-0.463-6.613l3.281-0.23l-0.848-12.099l-3.282,0.229l-0.492-7.024l12.049-0.845l1.34,19.124l3.179-0.223
			l0.464,6.613L99.977,65.657z"/>
	</g>
	<g>
		<defs>
			<rect id="SVGID_11_" x="1" y="3.426" width="379.417" height="110.401"/>
		</defs>
		<clipPath id="SVGID_12_">
			<use xlink:href="#SVGID_11_"  overflow="visible"/>
		</clipPath>
		<path clip-path="url(#SVGID_12_)" fill="#FFFFFF" d="M131.861,64.092c-7.742,0.543-14.804-3.188-15.447-12.365
			c-0.586-8.356,5.497-14.193,14.059-14.793c3.589-0.252,7.393,0.358,9.178,1.573l0.633,9.022l-6.512,0.456l-0.537-3.98
			c-0.208-0.037-0.567-0.013-0.875,0.01c-3.538,0.248-7.363,2.268-7.043,6.831c0.28,3.999,3.214,6.164,7.572,5.858
			c2.82-0.197,5.985-1.348,7.914-3.234l0.205-0.015l0.521,7.435C139.597,62.726,135.143,63.861,131.861,64.092"/>
	</g>
	<g>
		<defs>
			<rect id="SVGID_13_" x="1" y="3.426" width="379.417" height="110.401"/>
		</defs>
		<clipPath id="SVGID_14_">
			<use xlink:href="#SVGID_13_"  overflow="visible"/>
		</clipPath>
		<path clip-path="url(#SVGID_14_)" fill="#FFFFFF" d="M146.333,64.777l0.205-0.014c1.131,0.692,2.445,1.065,4.188,0.942
			c1.487-0.104,2.538-0.539,3.198-1.41c0.47-0.65,0.922-1.56,1.066-2.443l0.144-0.887l-9.355-17.325l-2.82,0.198l-0.492-7.024
			l14.817-1.039l0.492,7.024l-2.204,0.155c2.472,5.134,3.582,7.734,4.395,9.79c0.714-2.317,1.6-5.11,3.347-10.333l-2.513,0.177
			l-0.492-7.025l13.176-0.923l0.493,7.024l-2.769,0.193l-7.126,19.614c-0.827,2.17-1.76,4.297-2.667,6.061
			c-2.041,3.956-5.514,5.127-9.205,5.387c-1.744,0.121-3.98-0.187-5.364-0.811L146.333,64.777z"/>
	</g>
</g>
<polygon fill="#FFFFFF" points="197.602,90.715 198.676,83.799 202.018,83.622 205.436,61.624 201.938,61.81 202.96,54.896 
	229.65,53.472 228.167,64.331 221.482,64.687 221.748,60.959 214.855,61.327 213.771,68.038 223.85,67.5 222.743,74.778 
	212.715,75.313 211.471,82.911 220.314,82.438 221.271,78.159 227.958,77.801 226.04,89.198 "/>
<g>
	<g>
		<defs>
			<rect id="SVGID_15_" x="1" y="3.426" width="379.417" height="110.401"/>
		</defs>
		<clipPath id="SVGID_16_">
			<use xlink:href="#SVGID_15_"  overflow="visible"/>
		</clipPath>
		<path clip-path="url(#SVGID_16_)" fill="#FFFFFF" d="M228.711,89.056l0.973-6.911l3.856-0.206l5.563-6.897l-3.115-5.196
			l-4.217,0.225l1.433-6.987l8.743-0.467l3.703,6.61c0.529-0.75,1.352-1.774,2.75-3.603l0.539-3.381l11.315-0.604l-1.125,6.971
			l-3.907,0.208l-5,5.837l2.938,4.796c0.678,1.098,1.631,1.562,2.969,1.49c0.926-0.049,1.74-0.248,2.34-0.589l0.156,0.043
			l-1.141,6.663c-1.459,0.695-3.146,0.992-4.531,1.066c-3.807,0.203-5.354-1.727-7.094-4.367l-1.906-2.889
			c-0.777,0.918-1.643,2.1-3.234,4.145l-0.59,3.435L228.711,89.056z"/>
	</g>
	<g>
		<defs>
			<rect id="SVGID_17_" x="1" y="3.426" width="379.417" height="110.401"/>
		</defs>
		<clipPath id="SVGID_18_">
			<use xlink:href="#SVGID_17_"  overflow="visible"/>
		</clipPath>
		<path clip-path="url(#SVGID_18_)" fill="#FFFFFF" d="M276.645,79.846c1.594-0.085,3.213-0.688,4.361-2.348
			c1.24-1.871,1.629-4.266,1.514-6.426c-0.151-2.88-1.819-4.183-4.188-4.057c-2.056,0.109-4.358,1.419-5.664,4.016l-0.896,5.463
			C272.367,78.938,274.639,79.952,276.645,79.846 M259.994,97.392l4.535-29.071l-3.242,0.174l1.021-6.967l11.623-0.619l-0.525,3.689
			c1.271-2.286,4.502-4.572,8.41-4.781c5.092-0.271,9.213,2.553,9.572,9.288c0.25,4.681-0.529,9.414-3.729,13.247
			c-2.566,3.128-6.062,4.294-9.201,4.462c-3.237,0.173-6.282-0.8-7.687-2.942l-2.088,13.059L259.994,97.392z"/>
	</g>
	<g>
		<defs>
			<rect id="SVGID_19_" x="1" y="3.426" width="379.417" height="110.401"/>
		</defs>
		<clipPath id="SVGID_20_">
			<use xlink:href="#SVGID_19_"  overflow="visible"/>
		</clipPath>
		<path clip-path="url(#SVGID_20_)" fill="#FFFFFF" d="M312.609,67.663c-0.107-2.006-1.805-2.896-3.914-2.781
			c-2.057,0.109-4.676,1.279-5.484,4.47l9.307-0.497C312.6,68.437,312.625,67.972,312.609,67.663 M307.58,85.518
			c-8.023,0.428-13.045-3.791-13.406-10.579c-0.238-4.423,1.188-8.676,4.213-11.881c2.732-2.931,6.623-4.427,10.275-4.622
			c6.941-0.371,11.262,3.268,11.592,9.438c0.092,1.748,0.033,3.506-0.338,5.278l-17.176,0.916c-0.041,0.209-0.033,0.363-0.027,0.466
			c0.139,2.623,2.328,4.002,6.648,3.771c3.084-0.165,6.182-1.104,9.223-3.071l0.205-0.011l-1.061,7.225
			C315.346,84.174,312.053,85.278,307.58,85.518"/>
	</g>
	<g>
		<defs>
			<rect id="SVGID_21_" x="1" y="3.426" width="379.417" height="110.401"/>
		</defs>
		<clipPath id="SVGID_22_">
			<use xlink:href="#SVGID_21_"  overflow="visible"/>
		</clipPath>
		<path clip-path="url(#SVGID_22_)" fill="#FFFFFF" d="M323.484,83.999l2.854-18.977l-3.188,0.17l1.02-6.966l11.674-0.623
			l-0.652,4.162c1.019-2.17,2.938-4.851,6.742-5.054c1.08-0.058,2.224,0.088,2.918,0.515l-1.268,8.165l-0.205,0.011
			c-0.904-0.521-2.207-0.76-3.543-0.688c-3.088,0.166-4.559,1.584-5.498,4.265l-2.215,14.56L323.484,83.999z"/>
	</g>
	<g>
		<defs>
			<rect id="SVGID_23_" x="1" y="3.426" width="379.417" height="110.401"/>
		</defs>
		<clipPath id="SVGID_24_">
			<use xlink:href="#SVGID_23_"  overflow="visible"/>
		</clipPath>
		<path clip-path="url(#SVGID_24_)" fill="#FFFFFF" d="M355.55,82.854c-3.961,0.211-7.559-1.505-7.797-5.979
			c-0.047-0.875-0.071-2.316,0.121-3.515l1.554-9.571l-3.447,0.185l0.971-6.963l3.496-0.188c0,0,0.166-0.782,1.424-7.141l8.33-0.444
			l-1.113,7.124l5.143-0.273l-1.021,6.965l-5.144,0.274l-1.325,8.012c-0.111,0.779-0.216,1.766-0.185,2.332
			c0.074,1.389,1.129,1.849,2.775,1.761c0.977-0.054,2.354-0.332,3.207-0.79l0.205-0.012l-0.934,6.65
			C360.468,82.231,357.762,82.736,355.55,82.854"/>
	</g>
</g>
</svg>
